<svg width="30" height="31" viewBox="0 0 30 31" fill="none" xmlns="http://www.w3.org/2000/svg">
<g clip-path="url(#clip0_54717_30063)">
<path d="M25.3904 10.1241C25.2695 10.2 22.39 11.798 22.39 15.3413C22.5259 19.3824 26.0237 20.7994 26.0837 20.7994C26.0237 20.8754 25.5554 22.7302 24.1689 24.6746C23.0687 26.3499 21.8471 28.0383 19.9923 28.0383C18.2279 28.0383 17.5946 26.9222 15.5589 26.9222C13.3726 26.9222 12.7539 28.0383 11.08 28.0383C9.22511 28.0383 7.91308 26.2594 6.75245 24.6C5.24495 22.4283 3.96339 19.0205 3.91792 15.7486C3.88746 14.0147 4.2198 12.3104 5.06355 10.8629C6.25464 8.84161 8.38089 7.47005 10.7031 7.42458C12.482 7.36458 14.0654 8.64614 15.1515 8.64614C16.1921 8.64614 18.1375 7.42458 20.3382 7.42458C21.2884 7.42552 23.822 7.71146 25.3904 10.1241ZM15.001 7.07817C14.6842 5.49474 15.5589 3.9113 16.3731 2.90114C17.4137 1.68005 19.0571 0.85083 20.4742 0.85083C20.5646 2.43427 19.9914 3.98724 18.9667 5.11833C18.047 6.33989 16.4635 7.25911 15.001 7.07817Z" fill="white"/>
</g>
<defs>
<clipPath id="clip0_54717_30063">
<rect width="30" height="30" fill="white" transform="translate(0 0.85083)"/>
</clipPath>
</defs>
</svg>
