<svg width="416" height="450" viewBox="0 0 416 450" fill="none" xmlns="http://www.w3.org/2000/svg">
<path d="M0 28.4901V421.49C0.00263289 422.343 0.256939 423.176 0.73103 423.884C1.20512 424.593 1.87789 425.146 2.66498 425.474C3.45207 425.802 4.31843 425.89 5.15544 425.727C5.99245 425.565 6.76284 425.159 7.37 424.56L212 225L7.37 25.4201C6.76284 24.8214 5.99245 24.4154 5.15544 24.2528C4.31843 24.0903 3.45207 24.1785 2.66498 24.5063C1.87789 24.8342 1.20512 25.3872 0.73103 26.0958C0.256939 26.8045 0.00263289 27.6374 0 28.4901ZM297.8 143L41.22 1.64005L41.06 1.55005C36.64 -0.849948 32.44 5.13005 36.06 8.61005L237.19 200.93L297.8 143ZM36.08 441.39C32.44 444.87 36.64 450.85 41.08 448.45L41.24 448.36L297.8 307L237.19 249.05L36.08 441.39ZM401.38 200L329.73 160.54L262.36 225L329.73 289.43L401.38 250C420.87 239.23 420.87 210.77 401.38 200Z" fill="white"/>
</svg>
